<svg xmlns="http://www.w3.org/2000/svg" viewBox="0 0 128 128"><title>Fundacja One Day</title><rect width="128" height="128" rx="22" fill="#fff"/><g fill="#2A7130"><g transform="translate(5 8)"><path d="M0,31.38c0-11.32,9.12-20.51,20.51-20.51c11.32,0,20.51,9.19,20.51,20.51s-9.19,20.51-20.51,20.51
			C9.12,51.89,0,42.7,0,31.38z M31.04,31.38c0-6.06-4.53-10.52-10.52-10.52c-6.06,0-10.59,4.46-10.59,10.52
			c0,6.06,4.53,10.52,10.59,10.52C26.51,41.9,31.04,37.44,31.04,31.38z"/>
<path d="M85.78,11.4v39.96H75.06L57.08,26.85v24.51H46.89V11.4h10.66l18.05,24.44V11.4H85.78z"/>
<path d="M103.63,20.26v6.73h12.32v8.79h-12.32v6.73h14.59v8.86H93.44V11.4h24.78v8.86H103.63z"/></g><g transform="translate(-128.28 60)"><path d="M170.11,51.51h-13.85c-10.99,0-19.98-8.92-19.98-19.98c0-11.06,8.99-19.98,19.98-19.98h13.85
				V51.51z M159.92,42.65V20.41h-3.66c-5.53,0-9.86,4.86-9.86,11.12c0,6.26,4.33,11.12,9.86,11.12H159.92z"/>
<path d="M203.05,44.37h-13.99l-2.2,6.99h-10.99l14.45-39.96h11.39l14.45,39.96h-10.92L203.05,44.37z
				 M200.52,36.11l-4.46-14.12l-4.4,14.12H200.52z"/>
<path d="M236.01,32.51v18.85h-10.19V32.58L211.77,11.4h11.32l7.86,12.52l7.86-12.52H250L236.01,32.51z"/></g></g></svg>