
<!-- Generator: Adobe Illustrator 28.2.0, SVG Export Plug-In . SVG Version: 6.00 Build 0)  -->
<svg version="1.1" id="logo" xmlns="http://www.w3.org/2000/svg" xmlns:xlink="http://www.w3.org/1999/xlink" x="0px" y="0px"
	 viewBox="0 0 250 63" style="enable-background:new 0 0 250 63;" xml:space="preserve">
<g>
	<g>
		<g>
			<path style="fill:#2A7130;" d="M203.05,44.37h-13.99l-2.2,6.99h-10.99l14.45-39.96h11.39l14.45,39.96h-10.92L203.05,44.37z
				 M200.52,36.11l-4.46-14.12l-4.4,14.12H200.52z"/>
			<path style="fill:#2A7130;" d="M236.01,32.51v18.85h-10.19V32.58L211.77,11.4h11.32l7.86,12.52l7.86-12.52H250L236.01,32.51z"/>
		</g>
	</g>
	<g>
		<path style="fill:#2A7130;" d="M178.72,59.79c0-1.71,1.39-3.09,3.09-3.09c1.71,0,3.09,1.39,3.09,3.09c0,1.71-1.39,3.09-3.09,3.09
			C180.11,62.88,178.72,61.49,178.72,59.79z M184.43,59.79c0-1.45-1.16-2.61-2.61-2.61s-2.61,1.16-2.61,2.61
			c0,1.45,1.16,2.61,2.61,2.61S184.43,61.23,184.43,59.79z"/>
		<path style="fill:#2A7130;" d="M186.57,56.78h1.57c1.67,0,3.01,1.35,3.01,3.01c0,1.67-1.35,3.01-3.01,3.01h-1.57V56.78z
			 M188.12,62.32c1.42,0,2.54-1.09,2.54-2.53c0-1.44-1.12-2.53-2.54-2.53h-1.07v5.06H188.12z"/>
		<path style="fill:#2A7130;" d="M198.63,56.78v6.02h-0.47v-5.06l-2.25,5.06h-0.39l-2.23-5.04v5.04h-0.48v-6.02h0.5l2.41,5.45
			l2.42-5.45H198.63z"/>
		<path style="fill:#2A7130;" d="M200.57,56.78h0.48v6.02h-0.48V56.78z"/>
		<path style="fill:#2A7130;" d="M203.51,57.25v2.31h2.39v0.46h-2.39v2.31h2.73v0.47h-3.21v-6.02h3.21v0.47H203.51z"/>
		<path style="fill:#2A7130;" d="M212.78,56.78v6.02h-0.42l-3.9-5.17v5.17h-0.48v-6.02h0.42l3.9,5.17v-5.17H212.78z"/>
		<path style="fill:#2A7130;" d="M214.72,56.78h0.48v6.02h-0.48V56.78z"/>
		<path style="fill:#2A7130;" d="M220.25,61.34h-2.81l-0.51,1.46h-0.53l2.18-6.02h0.53l2.18,6.02h-0.52L220.25,61.34z M220.09,60.88
			l-1.24-3.53l-1.25,3.53H220.09z"/>
		<path style="fill:#2A7130;" d="M229.42,62.32v0.48h-4.55l3.52-5.54h-3.33v-0.48h4.21l-3.52,5.54H229.42z M226.78,55.74
			c0-0.21,0.17-0.37,0.37-0.37c0.19,0,0.36,0.16,0.36,0.37c0,0.2-0.17,0.36-0.36,0.36C226.95,56.1,226.78,55.94,226.78,55.74z"/>
		<path style="fill:#2A7130;" d="M232.79,59.95v2.85h-0.48v-2.85l-2.1-3.17h0.6l1.75,2.67l1.75-2.67h0.58L232.79,59.95z"/>
		<path style="fill:#2A7130;" d="M235.67,59.79c0-1.71,1.39-3.09,3.09-3.09c1.15,0,2.15,0.62,2.68,1.56l-0.41,0.23
			c-0.45-0.78-1.29-1.31-2.27-1.31c-1.45,0-2.61,1.16-2.61,2.61c0,1.45,1.16,2.61,2.61,2.61c0.97,0,1.82-0.52,2.27-1.31l0.41,0.23
			c-0.53,0.93-1.53,1.56-2.68,1.56C237.05,62.88,235.67,61.49,235.67,59.79z"/>
		<path style="fill:#2A7130;" d="M242.98,56.78h0.48v6.02h-0.48V56.78z"/>
		<path style="fill:#2A7130;" d="M245.92,57.25v2.31h2.39v0.46h-2.39v2.31h2.73v0.47h-3.21v-6.02h3.21v0.47H245.92z"/>
	</g>
	<g>
		<path style="fill:#2A7130;" d="M0,31.38c0-11.32,9.12-20.51,20.51-20.51c11.32,0,20.51,9.19,20.51,20.51s-9.19,20.51-20.51,20.51
			C9.12,51.89,0,42.7,0,31.38z M31.04,31.38c0-6.06-4.53-10.52-10.52-10.52c-6.06,0-10.59,4.46-10.59,10.52
			c0,6.06,4.53,10.52,10.59,10.52C26.51,41.9,31.04,37.44,31.04,31.38z"/>
		<path style="fill:#2A7130;" d="M85.78,11.4v39.96H75.06L57.08,26.85v24.51H46.89V11.4h10.66l18.05,24.44V11.4H85.78z"/>
		<path style="fill:#2A7130;" d="M103.63,20.26v6.73h12.32v8.79h-12.32v6.73h14.59v8.86H93.44V11.4h24.78v8.86H103.63z"/>
	</g>
	<g>
		<g>
			<path style="fill:#2A7130;" d="M170.11,51.51h-13.85c-10.99,0-19.98-8.92-19.98-19.98c0-11.06,8.99-19.98,19.98-19.98h13.85
				V51.51z M159.92,42.65V20.41h-3.66c-5.53,0-9.86,4.86-9.86,11.12c0,6.26,4.33,11.12,9.86,11.12H159.92z"/>
		</g>
	</g>
	<g>
		<path style="fill:#2A7130;" d="M2.28,0.67v2.31h2.39v0.46H2.28v2.78H1.79V0.2h3.21v0.47H2.28z"/>
		<path style="fill:#2A7130;" d="M6.33,4.24V0.2h0.48v3.97c0,0.94,0.74,1.66,1.72,1.66c0.98,0,1.73-0.71,1.73-1.66V0.2h0.48v4.04
			c0,1.17-0.94,2.07-2.21,2.07C7.28,6.3,6.33,5.41,6.33,4.24z"/>
		<path style="fill:#2A7130;" d="M17.4,0.2v6.02h-0.42l-3.9-5.17v5.17H12.6V0.2h0.42l3.9,5.17V0.2H17.4z"/>
		<path style="fill:#2A7130;" d="M19.29,0.2h1.57c1.67,0,3.01,1.35,3.01,3.01c0,1.67-1.35,3.01-3.01,3.01h-1.57V0.2z M20.84,5.74
			c1.42,0,2.54-1.09,2.54-2.53c0-1.44-1.12-2.53-2.54-2.53h-1.07v5.06H20.84z"/>
		<path style="fill:#2A7130;" d="M28.49,4.77h-2.81l-0.51,1.46h-0.53l2.18-6.02h0.53l2.18,6.02H29L28.49,4.77z M28.32,4.31
			l-1.24-3.53l-1.25,3.53H28.32z"/>
		<path style="fill:#2A7130;" d="M30.28,3.21c0-1.71,1.39-3.09,3.09-3.09c1.15,0,2.15,0.62,2.68,1.56l-0.41,0.23
			c-0.45-0.78-1.29-1.31-2.27-1.31c-1.45,0-2.61,1.16-2.61,2.61s1.16,2.61,2.61,2.61c0.97,0,1.82-0.52,2.27-1.31l0.41,0.23
			c-0.53,0.93-1.53,1.56-2.68,1.56C31.67,6.3,30.28,4.92,30.28,3.21z"/>
		<path style="fill:#2A7130;" d="M39.76,4.76c0,0.91-0.62,1.55-1.49,1.55c-0.8,0-1.38-0.52-1.48-1.33l0.49-0.11
			c0.06,0.56,0.46,0.95,0.98,0.95c0.57,0,1-0.46,1-1.1V0.68h-2.23V0.2h2.71V4.76z"/>
		<path style="fill:#2A7130;" d="M44.64,4.77h-2.81l-0.51,1.46h-0.53l2.18-6.02h0.53l2.18,6.02h-0.52L44.64,4.77z M44.48,4.31
			l-1.24-3.53l-1.25,3.53H44.48z"/>
	</g>
</g>
</svg>
